<?xml version="1.0" standalone="no"?>
<!DOCTYPE svg PUBLIC "-//W3C//DTD SVG 20010904//EN"
 "http://www.w3.org/TR/2001/REC-SVG-20010904/DTD/svg10.dtd">
<svg version="1.0" xmlns="http://www.w3.org/2000/svg"
 width="512.000000pt" height="512.000000pt" viewBox="0 0 512.000000 512.000000"
 preserveAspectRatio="xMidYMid meet">
<metadata>
Created by potrace 1.11, written by Peter Selinger 2001-2013
</metadata>
<g transform="translate(0.000000,512.000000) scale(0.100000,-0.100000)"
fill="#000000" stroke="none">
<path d="M2465 4066 c-22 -7 -83 -34 -135 -58 -52 -25 -133 -64 -180 -86 -47
-22 -134 -63 -195 -92 -249 -118 -323 -154 -390 -185 -38 -18 -119 -56 -180
-85 -60 -29 -146 -69 -190 -90 -44 -21 -138 -66 -210 -100 -71 -34 -245 -116
-385 -182 -536 -253 -579 -275 -592 -302 -22 -49 0 -70 139 -137 70 -33 156
-74 189 -90 l62 -30 0 -339 1 -338 -30 -13 c-69 -28 -128 -118 -129 -194 0
-88 60 -182 133 -208 15 -6 17 -15 12 -69 -8 -82 -31 -219 -49 -288 -15 -57
-11 -68 24 -71 36 -3 70 -8 150 -24 47 -9 96 -19 110 -20 14 -2 47 -8 75 -14
27 -5 51 -8 53 -6 2 1 -13 29 -33 60 -31 48 -83 151 -115 230 -14 33 -48 148
-53 177 -3 20 1 29 14 33 28 9 94 89 106 128 14 45 8 120 -11 162 -18 37 -83
100 -115 110 -12 4 -21 15 -22 28 -2 77 1 590 4 593 2 2 73 -29 158 -70 85
-40 204 -97 264 -126 279 -131 324 -154 321 -159 -2 -3 -7 -33 -10 -66 -4 -33
-9 -71 -11 -85 -2 -14 -9 -63 -15 -110 -7 -47 -14 -96 -16 -110 -26 -178 -4
-254 111 -365 179 -176 525 -299 960 -343 147 -15 581 -6 678 14 12 2 36 6 52
9 205 29 444 105 595 187 147 80 239 168 285 272 30 67 29 124 -9 401 -14 105
-26 194 -26 198 0 7 92 53 340 169 41 20 125 59 185 88 151 72 287 136 370
175 275 128 346 166 356 193 19 51 0 68 -159 144 -81 39 -207 99 -281 134 -73
35 -135 64 -136 64 -2 0 -92 43 -200 95 -108 52 -198 95 -200 95 -1 0 -81 38
-176 84 -96 46 -199 95 -229 109 -88 40 -234 109 -393 186 -82 39 -150 71
-152 71 -2 0 -72 33 -156 74 -243 116 -331 157 -369 171 -48 16 -147 17 -195
1z"/>
</g>
</svg>
